<svg width="81" height="81" viewBox="0 0 81 81" fill="none" xmlns="http://www.w3.org/2000/svg">
<path fill-rule="evenodd" clip-rule="evenodd" d="M22.9503 29.1879C22.6685 30.2227 23.407 31.5522 24.9144 31.4911C35.4574 31.0638 47.1306 25.2924 54.6236 17.7381C56.6229 15.7225 56.849 15.498 57.3334 15.0174C57.5614 14.791 57.8468 14.5079 58.4015 13.954L58.4034 18.2673C58.4039 19.3029 59.2437 20.142 60.2792 20.1415C61.3148 20.1411 62.1539 19.3012 62.1534 18.2657L62.1495 9.42691C62.149 8.39138 61.3092 7.55229 60.2737 7.55273L51.4349 7.55657C50.3994 7.55702 49.5603 8.39685 49.5607 9.43238C49.5612 10.4679 50.401 11.307 51.4365 11.3066L55.7481 11.3047C55.3314 11.7213 55.0155 12.0367 54.7375 12.3143L54.7366 12.3151L54.7364 12.3154C53.9717 13.079 53.4934 13.5566 51.9907 15.0669C45.1315 21.9611 34.5287 27.0964 25.0382 27.8514C24.6776 27.8801 24.2457 27.9391 23.8644 28.1184C23.4547 28.3112 23.0973 28.6477 22.9503 29.1879Z" fill="#207DE9"/>
<rect x="3.57739" y="22.2021" width="73.9815" height="48.8605" fill="#DBF3F1"/>
<rect x="3.57739" y="73.8008" width="73.9815" height="3.54614" fill="#DBF3F1"/>
<rect x="13.4223" y="36.3574" width="13.5472" height="28.5001" rx="2.5" fill="#6ADFD7"/>
<rect x="34.6146" y="42.1094" width="13.5472" height="22.7482" rx="2.5" fill="#6ADFD7"/>
<rect x="54.1665" y="29.5479" width="13.5472" height="35.3078" rx="2.5" fill="#6ADFD7"/>
<path fill-rule="evenodd" clip-rule="evenodd" d="M24.9144 31.4912C23.407 31.5523 22.6685 30.2228 22.9503 29.188C23.0973 28.6478 23.4547 28.3113 23.8644 28.1185C24.2457 27.9392 24.6776 27.8801 25.0382 27.8514C30.8122 27.3921 36.9979 25.3114 42.5018 22.1997H49.4382C42.3108 27.4674 33.2586 31.153 24.9144 31.4912Z" fill="#6ADFD7"/>
</svg>
