<svg width="81" height="81" viewBox="0 0 81 81" fill="none" xmlns="http://www.w3.org/2000/svg">
<rect x="2.2428" y="7.56445" width="54.0381" height="54.0381" fill="#DBF3F1"/>
<path d="M56.2809 45.1641C59.8678 45.1641 62.7756 42.2563 62.7756 38.6694C62.7756 35.0826 59.8678 32.1748 56.2809 32.1748C52.694 32.1748 49.7863 35.0826 49.7863 38.6694C49.7863 42.2563 52.694 45.1641 56.2809 45.1641ZM46.539 39.4813C46.539 42.6198 43.9947 45.1641 40.8562 45.1641C37.7176 45.1641 35.1733 42.6198 35.1733 39.4813C35.1733 36.3427 37.7176 33.7985 40.8562 33.7985C43.9947 33.7985 46.539 36.3427 46.539 39.4813ZM77.3885 39.4813C77.3885 42.6198 74.8442 45.1641 71.7057 45.1641C68.5672 45.1641 66.0229 42.6198 66.0229 39.4813C66.0229 36.3427 68.5672 33.7985 71.7057 33.7985C74.8442 33.7985 77.3885 36.3427 77.3885 39.4813ZM45.5279 48.4114C44.6366 49.5233 44.1035 50.9347 44.1035 52.4706V64.648C44.1035 66.6526 44.5879 68.5441 45.446 70.2118C44.3175 70.8062 43.032 71.1426 41.668 71.1426C37.1844 71.1426 33.5497 67.5079 33.5497 63.0243V52.4706C33.5497 50.2287 35.367 48.4114 37.6088 48.4114H45.5279ZM67.1159 70.2118C67.974 68.5441 68.4584 66.6526 68.4584 64.648V52.4706C68.4584 50.9347 67.9252 49.5233 67.0339 48.4114H74.953C77.1948 48.4114 79.0122 50.2287 79.0122 52.4706V63.0243C79.0122 67.5079 75.3775 71.1426 70.8939 71.1426C69.5298 71.1426 68.2443 70.8062 67.1159 70.2118ZM50.5981 48.4114C48.3563 48.4114 46.539 50.2287 46.539 52.4706V64.648C46.539 70.0283 50.9006 74.39 56.2809 74.39C61.6613 74.39 66.0229 70.0283 66.0229 64.648V52.4706C66.0229 50.2287 64.2055 48.4114 61.9637 48.4114H50.5981Z" fill="#207DE9"/>
<path fill-rule="evenodd" clip-rule="evenodd" d="M44.1035 61.6028H33.5497V52.471C33.5497 50.2292 35.3671 48.4119 37.6089 48.4119H45.528C44.6367 49.5238 44.1035 50.9351 44.1035 52.471V61.6028ZM56.2809 48.4119V61.6028H46.539V52.471C46.539 50.2292 48.3564 48.4119 50.5982 48.4119H56.2809ZM56.2809 32.1753V45.1646C52.6941 45.1645 49.7863 42.2568 49.7863 38.6699C49.7863 35.0831 52.6941 32.1753 56.2809 32.1753ZM40.8562 45.1646C43.9947 45.1646 46.539 42.6203 46.539 39.4818C46.539 36.3432 43.9947 33.799 40.8562 33.799C37.7177 33.799 35.1734 36.3432 35.1734 39.4818C35.1734 42.6203 37.7177 45.1646 40.8562 45.1646Z" fill="#6ADFD7"/>
</svg>
